<svg version="1.1" xmlns="http://www.w3.org/2000/svg" x="0px" y="0px"
	 width="512px" height="512px" viewBox="0 0 512 512" enable-background="new 0 0 512 512">
<g>
	<g>
		<path stroke="#000000" stroke-width="10" stroke-miterlimit="10" d="M149.46,130.15c-1.84-2.09-4.3-3.78-7.38-5.07
			s-6.58-1.94-10.51-1.94c-5.78,0-9.99,1.09-12.64,3.27c-2.64,2.18-3.97,5.15-3.97,8.9c0,1.97,0.35,3.58,1.06,4.84
			s1.8,2.35,3.27,3.27s3.37,1.72,5.67,2.4c2.31,0.68,5.03,1.35,8.16,2.03c3.5,0.74,6.65,1.57,9.45,2.49s5.18,2.08,7.15,3.46
			s3.47,3.06,4.52,5.03c1.04,1.97,1.57,4.43,1.57,7.38c0,3.01-0.58,5.63-1.75,7.84c-1.17,2.21-2.8,4.06-4.89,5.53
			c-2.09,1.48-4.58,2.57-7.47,3.27c-2.89,0.71-6.06,1.06-9.5,1.06c-10.15,0-18.91-3.17-26.29-9.5l3.23-5.26
			c1.17,1.23,2.57,2.4,4.2,3.5c1.63,1.11,3.44,2.08,5.44,2.91s4.13,1.48,6.41,1.94c2.27,0.46,4.67,0.69,7.19,0.69
			c5.23,0,9.3-0.94,12.22-2.81s4.38-4.72,4.38-8.53c0-2.03-0.42-3.74-1.25-5.12s-2.08-2.58-3.74-3.6c-1.66-1.01-3.72-1.89-6.18-2.63
			c-2.46-0.74-5.32-1.48-8.58-2.21c-3.44-0.8-6.46-1.63-9.04-2.49s-4.77-1.94-6.55-3.23c-1.78-1.29-3.12-2.84-4.01-4.66
			c-0.89-1.81-1.34-4.04-1.34-6.69c0-3.01,0.57-5.7,1.71-8.07c1.14-2.37,2.75-4.33,4.84-5.9c2.09-1.57,4.55-2.77,7.38-3.6
			c2.83-0.83,5.96-1.25,9.41-1.25c4.36,0,8.25,0.66,11.67,1.98c3.41,1.32,6.5,3.18,9.27,5.58L149.46,130.15z"/>
		<path stroke="#000000" stroke-width="10" stroke-miterlimit="10" d="M132.22,184.92c-10.34,0-19.41-3.28-26.94-9.74l-0.65-0.56
			l4.36-7.09l0.9,0.95c1.11,1.17,2.47,2.3,4.03,3.37c1.56,1.06,3.33,2.01,5.26,2.81s4.02,1.43,6.23,1.88c2.2,0.45,4.55,0.67,7,0.67
			c5.01,0,8.94-0.89,11.68-2.65c2.64-1.69,3.92-4.21,3.92-7.69c0-1.84-0.37-3.38-1.1-4.6c-0.74-1.24-1.89-2.33-3.4-3.26
			c-1.58-0.96-3.58-1.81-5.95-2.52c-2.43-0.73-5.29-1.47-8.51-2.2c-3.46-0.8-6.53-1.65-9.13-2.52c-2.67-0.89-4.96-2.02-6.82-3.37
			c-1.91-1.38-3.36-3.07-4.32-5.03c-0.96-1.94-1.44-4.34-1.44-7.13c0-3.15,0.61-6.01,1.81-8.5c1.2-2.5,2.93-4.61,5.14-6.27
			c2.18-1.63,4.77-2.9,7.7-3.76c2.91-0.85,6.17-1.29,9.69-1.29c4.47,0,8.51,0.69,12.03,2.05c3.51,1.36,6.72,3.3,9.56,5.76l0.64,0.55
			l-4.28,7.05l-0.9-1.02c-1.74-1.97-4.1-3.59-7.02-4.81c-2.94-1.23-6.34-1.86-10.13-1.86c-5.51,0-9.55,1.02-12,3.05
			c-2.42,2-3.6,4.66-3.6,8.13c0,1.79,0.31,3.25,0.93,4.35c0.62,1.11,1.61,2.09,2.93,2.92c1.39,0.87,3.22,1.64,5.42,2.29
			c2.27,0.67,4.99,1.34,8.09,2.01c3.52,0.74,6.73,1.59,9.56,2.52c2.88,0.95,5.37,2.16,7.41,3.59c2.09,1.47,3.71,3.28,4.83,5.38
			c1.12,2.11,1.69,4.75,1.69,7.85c0,3.16-0.63,5.96-1.87,8.31c-1.24,2.34-2.98,4.32-5.2,5.88c-2.19,1.54-4.81,2.7-7.81,3.43
			C139,184.55,135.72,184.92,132.22,184.92z M107.23,174.21c7.03,5.78,15.43,8.71,24.98,8.71c3.34,0,6.46-0.35,9.26-1.03
			c2.75-0.67,5.15-1.72,7.13-3.12c1.95-1.38,3.49-3.12,4.58-5.18s1.64-4.54,1.64-7.37c0-2.77-0.49-5.1-1.45-6.91
			c-0.97-1.82-2.38-3.39-4.21-4.68c-1.88-1.32-4.2-2.44-6.89-3.33c-2.75-0.91-5.9-1.74-9.35-2.46c-3.15-0.68-5.92-1.37-8.24-2.05
			c-2.38-0.7-4.37-1.54-5.92-2.51c-1.61-1.01-2.83-2.23-3.62-3.63c-0.79-1.4-1.19-3.2-1.19-5.33c0-4.05,1.46-7.3,4.33-9.67
			c2.82-2.32,7.28-3.5,13.27-3.5c4.05,0,7.72,0.68,10.9,2.02c2.71,1.14,5,2.6,6.81,4.36l2.02-3.32c-2.5-2.05-5.3-3.69-8.33-4.86
			c-3.28-1.27-7.09-1.92-11.31-1.92c-3.33,0-6.4,0.41-9.13,1.2c-2.7,0.79-5.08,1.95-7.06,3.44c-1.95,1.46-3.48,3.33-4.54,5.54
			c-1.07,2.22-1.61,4.79-1.61,7.64c0,2.48,0.42,4.58,1.23,6.25c0.81,1.66,2.06,3.1,3.7,4.29c1.69,1.23,3.81,2.27,6.28,3.09
			c2.54,0.85,5.55,1.68,8.95,2.46c3.26,0.74,6.17,1.49,8.64,2.23c2.53,0.76,4.69,1.68,6.41,2.73c1.79,1.09,3.16,2.42,4.07,3.94
			c0.92,1.53,1.39,3.43,1.39,5.63c0,4.16-1.63,7.31-4.84,9.37c-3.07,1.97-7.36,2.97-12.76,2.97c-2.58,0-5.06-0.24-7.39-0.71
			s-4.55-1.14-6.6-1.99c-2.05-0.85-3.94-1.86-5.62-3c-1.28-0.87-2.43-1.78-3.44-2.73L107.23,174.21z"/>
	</g>
	<g>
		<path stroke="#000000" stroke-width="10" stroke-miterlimit="10" d="M181.28,150.16c0-3.93,0.69-7.85,2.08-11.76
			c1.38-3.9,3.4-7.39,6.04-10.47c2.64-3.07,5.9-5.58,9.78-7.52s8.27-2.91,13.19-2.91c5.84,0,10.84,1.32,14.99,3.97
			c4.15,2.64,7.21,6.09,9.18,10.33l-5.07,3.14c-1.05-2.15-2.32-3.97-3.83-5.44c-1.51-1.48-3.12-2.67-4.84-3.6
			c-1.72-0.92-3.5-1.58-5.35-1.98c-1.84-0.4-3.66-0.6-5.44-0.6c-3.94,0-7.41,0.8-10.42,2.4s-5.55,3.69-7.61,6.27
			s-3.61,5.49-4.66,8.72s-1.57,6.5-1.57,9.82c0,3.63,0.63,7.1,1.89,10.42c1.26,3.32,2.98,6.26,5.17,8.81
			c2.18,2.55,4.76,4.58,7.75,6.09c2.98,1.51,6.23,2.26,9.73,2.26c1.84,0,3.74-0.23,5.67-0.69c1.94-0.46,3.81-1.2,5.63-2.21
			c1.81-1.01,3.49-2.27,5.03-3.78s2.83-3.33,3.87-5.49l5.35,2.77c-1.05,2.46-2.52,4.63-4.43,6.5c-1.91,1.88-4.03,3.46-6.36,4.75
			c-2.34,1.29-4.81,2.28-7.42,2.95c-2.61,0.68-5.18,1.01-7.7,1.01c-4.49,0-8.61-0.98-12.36-2.95s-6.98-4.53-9.68-7.7
			c-2.71-3.17-4.81-6.76-6.32-10.79C182.03,158.45,181.28,154.35,181.28,150.16z"/>
		<path stroke="#000000" stroke-width="10" stroke-miterlimit="10" d="M211.9,184.92c-4.63,0-8.95-1.03-12.82-3.07
			c-3.85-2.02-7.21-4.69-9.98-7.94c-2.77-3.24-4.95-6.97-6.49-11.09c-1.54-4.12-2.32-8.38-2.32-12.66c0-4.03,0.72-8.1,2.13-12.09
			c1.42-4,3.51-7.63,6.23-10.79c2.72-3.16,6.11-5.77,10.09-7.76c4-2,8.58-3.01,13.64-3.01c6.01,0,11.23,1.39,15.52,4.12
			c4.29,2.74,7.51,6.35,9.55,10.75l0.37,0.8l-6.77,4.19l-0.48-1c-0.99-2.04-2.21-3.78-3.63-5.17c-1.43-1.4-2.98-2.56-4.62-3.43
			c-1.63-0.87-3.34-1.51-5.09-1.89c-1.77-0.38-3.53-0.58-5.23-0.58c-3.75,0-7.1,0.77-9.95,2.28c-2.88,1.53-5.33,3.55-7.3,6.01
			c-1.98,2.48-3.48,5.3-4.49,8.4c-1.01,3.11-1.52,6.31-1.52,9.51c0,3.49,0.61,6.88,1.83,10.07c1.21,3.2,2.89,6.06,4.99,8.51
			c2.09,2.44,4.59,4.41,7.44,5.85c4.31,2.18,9.36,2.76,14.72,1.49c1.84-0.44,3.64-1.15,5.37-2.11c1.73-0.97,3.35-2.19,4.81-3.62
			c1.45-1.42,2.68-3.17,3.67-5.21l0.45-0.92l7.08,3.66l-0.36,0.85c-1.09,2.57-2.66,4.87-4.65,6.82c-1.96,1.93-4.18,3.58-6.58,4.91
			c-2.4,1.33-4.98,2.35-7.66,3.04C217.17,184.57,214.49,184.92,211.9,184.92z M212.36,118.51c-4.74,0-9.03,0.94-12.74,2.8
			c-3.74,1.87-6.92,4.32-9.47,7.27c-2.55,2.97-4.52,6.38-5.86,10.15c-1.34,3.78-2.02,7.62-2.02,11.43c0,4.04,0.74,8.07,2.2,11.96
			c1.46,3.9,3.52,7.43,6.14,10.49c2.61,3.05,5.77,5.57,9.39,7.47c3.59,1.88,7.59,2.84,11.89,2.84c2.42,0,4.93-0.33,7.45-0.98
			s4.94-1.61,7.19-2.86c2.25-1.24,4.31-2.78,6.15-4.59c1.58-1.56,2.87-3.35,3.83-5.34l-3.61-1.87c-1.01,1.86-2.22,3.49-3.6,4.85
			c-1.59,1.56-3.35,2.89-5.24,3.94s-3.87,1.83-5.88,2.31c-5.82,1.39-11.35,0.75-16.09-1.65c-3.09-1.56-5.8-3.69-8.06-6.33
			c-2.25-2.63-4.04-5.69-5.34-9.1c-1.3-3.42-1.96-7.04-1.96-10.78c0-3.41,0.54-6.82,1.62-10.13c1.08-3.33,2.7-6.37,4.83-9.03
			c2.13-2.68,4.8-4.87,7.92-6.53c3.15-1.67,6.81-2.51,10.89-2.51c1.84,0,3.75,0.21,5.65,0.62c1.93,0.42,3.82,1.12,5.61,2.08
			c1.8,0.96,3.5,2.23,5.07,3.76c1.34,1.32,2.53,2.91,3.52,4.74l3.38-2.09c-1.89-3.69-4.72-6.75-8.42-9.11
			C222.85,119.8,217.98,118.51,212.36,118.51z"/>
	</g>
	<g>
		<path stroke="#000000" stroke-width="10" stroke-miterlimit="10" d="M286.7,117.88h5.44l27.21,65.48h-6.83l-8.49-20.48h-29.42
			l-8.39,20.48h-6.92L286.7,117.88z M302.56,157.82l-13.19-32.37L276,157.82H302.56z"/>
		<path stroke="#000000" stroke-width="10" stroke-miterlimit="10" d="M320.85,184.37h-8.99l-8.49-20.48h-28.08l-8.39,20.48h-9.09
			l28.23-67.48h6.77l0.26,0.62L320.85,184.37z M313.19,182.37h4.66l-26.38-63.48h-4.11l-26.56,63.48h4.75l8.39-20.48h30.76
			L313.19,182.37z M304.05,158.82h-29.54l14.88-36.01L304.05,158.82z M277.5,156.82h23.58l-11.71-28.74L277.5,156.82z"/>
	</g>
	<g>
		<path stroke="#000000" stroke-width="10" stroke-miterlimit="10" d="M353.66,129.87v53.49h-6.46v-65.48h4.98l43.35,54.51v-54.42
			h6.46v65.39h-5.63L353.66,129.87z"/>
		<path stroke="#000000" stroke-width="10" stroke-miterlimit="10" d="M402.99,184.37h-7.11l-41.22-51.64v51.64h-8.46v-67.48h6.46
			l41.87,52.64v-52.55h8.46V184.37z M396.84,182.37h4.14v-63.39h-4.46v56.28l-44.83-56.37h-3.5v63.48h4.46v-55.35L396.84,182.37z"/>
	</g>
</g>
<g>
	<path stroke="#000000" stroke-width="8" stroke-miterlimit="10" d="M233.6,395.82V288.09l-41.94,80.22h-17.19l-41.94-80.22v107.73
		H100.9V233.08h33.92l48.13,92.6l48.59-92.6h33.69v162.73H233.6V395.82z"/>
	<path stroke="#000000" stroke-width="8" stroke-miterlimit="10" d="M412.15,368.08v27.73h-113V233.08h110.93v27.73h-79.3V300h68.53
		v25.67h-68.53v42.4L412.15,368.08L412.15,368.08z"/>
</g>
<polygon fill="#DC3545" stroke="#DC3545" stroke-width="8" stroke-miterlimit="10" points="39.04,39.19 109.62,39.19 109.62,14.91 
	14.75,14.91 14.75,98.17 39.04,98.17 "/>
<polygon fill="#DC3545" stroke="#DC3545" stroke-width="8" stroke-miterlimit="10" points="469.27,39.19 398.7,39.19 398.7,14.91 
	493.56,14.91 493.56,98.17 469.27,98.17 "/>
<polygon fill="#DC3545" stroke="#DC3545" stroke-width="8" stroke-miterlimit="10" points="469.27,469.76 398.7,469.76 
	398.7,494.05 493.56,494.05 493.56,410.78 469.27,410.78 "/>
<polygon fill="#DC3545" stroke="#DC3545" stroke-width="8" stroke-miterlimit="10" points="46.73,469.76 117.3,469.76 117.3,494.05 
	22.44,494.05 22.44,410.78 46.73,410.78 "/>
</svg>
